<?xml version="1.0" encoding="UTF-8"?>
<svg version="1.1" xmlns="http://www.w3.org/2000/svg" width="828" height="828">
<path d="M0 0 C1.90712769 0.00031723 1.90712769 0.00031723 3.8527832 0.00064087 C24.80368095 0.03530929 45.25103503 1.0383856 65.9375 4.375 C67.1145752 4.56223633 68.29165039 4.74947266 69.50439453 4.94238281 C135.8909408 15.86376661 201.15110317 43.37759237 253.9375 85.375 C254.54996582 85.86033203 255.16243164 86.34566406 255.79345703 86.84570312 C263.52015602 92.98528629 271.08698831 99.23455655 278.3125 105.9609375 C280.41700504 107.89633053 282.54969339 109.77088813 284.71484375 111.63671875 C289.16189727 115.51524209 293.34012978 119.63004225 297.5 123.8125 C298.21607422 124.52470703 298.93214844 125.23691406 299.66992188 125.97070312 C304.2985853 130.60778996 308.68294492 135.39385066 312.9375 140.375 C313.40438232 140.91487549 313.87126465 141.45475098 314.35229492 142.01098633 C347.52329817 180.40760049 373.66767591 224.63727488 390.9375 272.375 C391.3097168 273.39722656 391.68193359 274.41945313 392.06542969 275.47265625 C402.43412473 304.28931937 409.23962982 333.9862512 412.9375 364.375 C413.02932556 365.11998749 413.12115112 365.86497498 413.21575928 366.63253784 C415.07521657 382.22194143 415.33665463 397.75053698 415.3125 413.4375 C415.31228851 414.70891846 415.31207703 415.98033691 415.31185913 417.2902832 C415.27719071 438.24118095 414.2741144 458.68853503 410.9375 479.375 C410.75026367 480.5520752 410.56302734 481.72915039 410.37011719 482.94189453 C399.44873339 549.3284408 371.93490763 614.58860317 329.9375 667.375 C329.45216797 667.98746582 328.96683594 668.59993164 328.46679688 669.23095703 C322.32721371 676.95765602 316.07794345 684.52448831 309.3515625 691.75 C307.41616947 693.85450504 305.54161187 695.98719339 303.67578125 698.15234375 C299.79725791 702.59939727 295.68245775 706.77762978 291.5 710.9375 C290.78779297 711.65357422 290.07558594 712.36964844 289.34179688 713.10742188 C284.70471004 717.7360853 279.91864934 722.12044492 274.9375 726.375 C274.39762451 726.84188232 273.85774902 727.30876465 273.30151367 727.78979492 C234.90489951 760.96079817 190.67522512 787.10517591 142.9375 804.375 C141.91527344 804.7472168 140.89304687 805.11943359 139.83984375 805.50292969 C111.02318063 815.87162473 81.3262488 822.67712982 50.9375 826.375 C50.19251251 826.46682556 49.44752502 826.55865112 48.67996216 826.65325928 C33.09055857 828.51271657 17.56196302 828.77415463 1.875 828.75 C-0.03212769 828.74968277 -0.03212769 828.74968277 -1.9777832 828.74935913 C-22.92868095 828.71469071 -43.37603503 827.7116144 -64.0625 824.375 C-65.2395752 824.18776367 -66.41665039 824.00052734 -67.62939453 823.80761719 C-134.0159408 812.88623339 -199.27610317 785.37240763 -252.0625 743.375 C-252.67496582 742.88966797 -253.28743164 742.40433594 -253.91845703 741.90429688 C-261.64515602 735.76471371 -269.21198831 729.51544345 -276.4375 722.7890625 C-278.54200504 720.85366947 -280.67469339 718.97911187 -282.83984375 717.11328125 C-287.28689727 713.23475791 -291.46512978 709.11995775 -295.625 704.9375 C-296.34107422 704.22529297 -297.05714844 703.51308594 -297.79492188 702.77929688 C-302.4235853 698.14221004 -306.80794492 693.35614934 -311.0625 688.375 C-311.52938232 687.83512451 -311.99626465 687.29524902 -312.47729492 686.73901367 C-345.64829817 648.34239951 -371.79267591 604.11272512 -389.0625 556.375 C-389.6208252 554.84166016 -389.6208252 554.84166016 -390.19042969 553.27734375 C-400.55912473 524.46068063 -407.36462982 494.7637488 -411.0625 464.375 C-411.15432556 463.63001251 -411.24615112 462.88502502 -411.34075928 462.11746216 C-413.20021657 446.52805857 -413.46165463 430.99946302 -413.4375 415.3125 C-413.43728851 414.04108154 -413.43707703 412.76966309 -413.43685913 411.4597168 C-413.40219071 390.50881905 -412.3991144 370.06146497 -409.0625 349.375 C-408.87526367 348.1979248 -408.68802734 347.02084961 -408.49511719 345.80810547 C-397.57373339 279.4215592 -370.05990763 214.16139683 -328.0625 161.375 C-327.57716797 160.76253418 -327.09183594 160.15006836 -326.59179688 159.51904297 C-320.45221371 151.79234398 -314.20294345 144.22551169 -307.4765625 137 C-305.54116947 134.89549496 -303.66661187 132.76280661 -301.80078125 130.59765625 C-297.92225791 126.15060273 -293.80745775 121.97237022 -289.625 117.8125 C-288.91279297 117.09642578 -288.20058594 116.38035156 -287.46679688 115.64257812 C-282.82971004 111.0139147 -278.04364934 106.62955508 -273.0625 102.375 C-272.52262451 101.90811768 -271.98274902 101.44123535 -271.42651367 100.96020508 C-233.02989951 67.78920183 -188.80022512 41.64482409 -141.0625 24.375 C-139.52916016 23.8166748 -139.52916016 23.8166748 -137.96484375 23.24707031 C-109.14818063 12.87837527 -79.4512488 6.07287018 -49.0625 2.375 C-47.94501877 2.23726166 -47.94501877 2.23726166 -46.80496216 2.09674072 C-31.21555857 0.23728343 -15.68696302 -0.02415463 0 0 Z " fill="#FDFDFD" transform="translate(413.0625,-0.375)"/>
<path d="M0 0 C0.66 0.33 1.32 0.66 2 1 C1.43152344 1.556875 0.86304688 2.11375 0.27734375 2.6875 C-0.49480469 3.450625 -1.26695312 4.21375 -2.0625 5 C-2.81660156 5.7425 -3.57070313 6.485 -4.34765625 7.25 C-7.04757556 10.04932724 -9.59247344 12.94505129 -12.14135742 15.88085938 C-20.97328013 25.9506202 -30.2867973 35.52306412 -40.234375 44.48828125 C-42.49696507 46.54314765 -44.67415705 48.63081226 -46.8125 50.8125 C-49.6908414 53.74022471 -52.72407052 56.43604537 -55.83203125 59.1171875 C-58.24842951 61.2157532 -60.62529024 63.354397 -63 65.5 C-67.2984132 69.37508462 -71.62421407 73.21255504 -76 77 C-76.5161084 77.44778809 -77.0322168 77.89557617 -77.56396484 78.35693359 C-84.56820285 84.42753694 -91.58555215 90.42935664 -99 96 C-93.08227608 105.69972792 -86.50025093 114.9228611 -79.96191406 124.20849609 C-76.60616236 128.98321796 -73.27076302 133.77206186 -69.9375 138.5625 C-68.92973511 140.01052002 -68.92973511 140.01052002 -67.90161133 141.48779297 C-63.11705913 148.37156527 -58.3786771 155.28576228 -53.65649414 162.21240234 C-49.62524391 168.11420783 -45.51846328 173.95937243 -41.38452148 179.78955078 C-36.61063787 186.52943018 -31.93656634 193.33598565 -27.26855469 200.14941406 C-22.22723504 207.50376412 -17.14136381 214.82221259 -11.9375 222.0625 C-8.91965721 226.26311188 -5.97419511 230.49446517 -3.125 234.8125 C0.05509417 239.63043826 3.34652102 244.35578664 6.6875 249.0625 C11.24539694 255.49536004 15.77166908 261.94894265 20.25 268.4375 C20.82322998 269.26064697 21.39645996 270.08379395 21.98706055 270.93188477 C22.51211182 271.69557373 23.03716309 272.4592627 23.578125 273.24609375 C24.28050293 274.26207642 24.28050293 274.26207642 24.99707031 275.29858398 C26 277 26 277 26 279 C10.65801264 279.35116768 -4.68378919 279.61527991 -20.02889824 279.77718258 C-27.15507601 279.85437575 -34.27875036 279.95949777 -41.40332031 280.1315918 C-47.61696205 280.28161016 -53.82879102 280.37798525 -60.04419339 280.41132742 C-63.33350159 280.43081126 -66.61644762 280.48416853 -69.90438461 280.58595085 C-89.91825877 281.18070885 -89.91825877 281.18070885 -95.05963707 277.54255486 C-98.3619104 274.07977284 -100.4173893 270.21547736 -102.21975613 265.81563568 C-103.33344802 263.22406295 -104.86027567 260.96419977 -106.44140625 258.63671875 C-107.48294103 256.9877177 -108.52328791 255.33796581 -109.5625 253.6875 C-116.86090586 242.16146395 -124.325893 230.74744619 -131.80908203 219.34082031 C-135.46103739 213.77213777 -139.10557288 208.1986119 -142.75 202.625 C-143.45334473 201.54968018 -144.15668945 200.47436035 -144.88134766 199.36645508 C-149.84143705 191.78040194 -154.78744722 184.18531309 -159.71582031 176.57861328 C-163.10232494 171.35765709 -166.53697389 166.17050626 -170 161 C-178.23694202 167.89213516 -185.36620038 175.40488561 -192.33349609 183.56103516 C-193.84692999 185.33269966 -195.36088455 187.10391794 -196.875 188.875 C-197.39376709 189.48255127 -197.91253418 190.09010254 -198.44702148 190.71606445 C-201.49591902 194.27716533 -204.59128415 197.7852494 -207.75 201.25 C-211.28653979 205.14779923 -214.58832981 209.17863309 -217.84375 213.3125 C-220.29405339 216.36650133 -222.82906188 219.33833517 -225.375 222.3125 C-229.85031027 227.56195532 -234.11265975 232.94748415 -238.28515625 238.44140625 C-240.25082541 241.02881635 -242.24136771 243.59507424 -244.24609375 246.15234375 C-244.82576904 246.89266846 -245.40544434 247.63299316 -246.00268555 248.39575195 C-247.09986598 249.79554998 -248.1987344 251.1940283 -249.30004883 252.59057617 C-250.10285278 253.6169519 -250.10285278 253.6169519 -250.921875 254.6640625 C-251.56302246 255.42130615 -252.20416992 256.1785498 -252.86474609 256.95874023 C-254.73338311 259.62025536 -255.79791831 261.81145292 -257.02978516 264.77758789 C-259.93632719 270.89072962 -262.99231294 275.61459408 -269 279 C-281.8395618 282.65585285 -296.66789537 280.86400035 -309.82763672 280.30462646 C-314.92135871 280.10884749 -320.01686706 280.02319429 -325.11328125 279.92773438 C-335.08023949 279.72506775 -345.03921249 279.40165471 -355 279 C-352.58958739 277.39305826 -350.59731567 276.32593863 -347.96484375 275.22265625 C-328.66639998 267.25025465 -328.66639998 267.25025465 -312 255 C-312.60658447 255.28609131 -313.21316895 255.57218262 -313.83813477 255.86694336 C-337.13604051 266.81125639 -359.97765529 275.83507449 -385 282 C-386.51835783 282.39273207 -388.03660149 282.78590602 -389.5546875 283.1796875 C-445.49118801 297.19334962 -509.83870371 293.71083411 -561 266 C-561.72429199 265.61440918 -562.44858398 265.22881836 -563.19482422 264.83154297 C-573.88240492 259.13257275 -584.05877233 252.91458914 -594 246 C-594.92425781 245.360625 -595.84851563 244.72125 -596.80078125 244.0625 C-599.20798655 242.38531808 -601.60488922 240.69439242 -604 239 C-605.8743925 237.68663257 -607.74938401 236.37411957 -609.625 235.0625 C-611.08333333 234.04166667 -612.54166667 233.02083333 -614 232 C-610.09820189 230.69940063 -608.377306 231.59688605 -604.4375 232.75 C-556.43120807 245.61454123 -500.25874672 236.78845095 -453 224 C-451.69052967 223.65852041 -450.38067582 223.3185055 -449.0703125 222.98046875 C-446.72270535 222.36611721 -444.37889598 221.7370745 -442.0390625 221.09375 C-438.91931775 220.23665969 -435.78708957 219.44118556 -432.6484375 218.65625 C-414.92165239 214.14684236 -397.73334218 208.32067283 -380.48918152 202.25640869 C-376.3914851 200.81799157 -372.28051093 199.43162158 -368.15478516 198.07543945 C-362.35388456 196.14720203 -356.64939057 194.0207203 -350.953125 191.8046875 C-349.93941833 191.41233917 -348.92571167 191.01999084 -347.88128662 190.61575317 C-345.74632401 189.78852939 -343.61191022 188.95988788 -341.47802734 188.12988281 C-338.3008142 186.89475382 -335.12126426 185.665801 -331.94140625 184.4375 C-306.551421 174.60044386 -281.21528791 164.33914787 -256.6015625 152.67578125 C-252.78357661 150.89929975 -248.9306587 149.22555591 -245.0625 147.5625 C-239.14180117 145.00321642 -233.36107833 142.24196678 -227.61108398 139.32128906 C-221.49441549 136.2218472 -215.31408485 133.26421004 -209.125 130.3125 C-189.44900635 120.89749818 -169.96445544 111.20132454 -150.89599609 100.60400391 C-147.80854299 98.8939578 -144.71152302 97.20213282 -141.61328125 95.51171875 C-125.10972696 86.47313864 -108.99771498 76.89940534 -93 67 C-91.88802246 66.31276855 -90.77604492 65.62553711 -89.63037109 64.91748047 C-78.6396927 58.11465472 -67.66876011 51.30045894 -57 44 C-55.82458073 43.21300076 -54.64877226 42.42658262 -53.47265625 41.640625 C-35.06957114 29.26189969 -15.54804386 15.90846779 0 0 Z " fill="#0164CF" transform="translate(717,287)"/>
<path d="M0 0 C12.75189634 -0.30166591 25.50293973 -0.53242075 38.25768185 -0.67355824 C44.1809667 -0.74131209 50.10180505 -0.83314152 56.02368164 -0.98071289 C61.74272596 -1.12233217 67.45942338 -1.19976542 73.18008614 -1.23340416 C75.3584444 -1.25736262 77.53667885 -1.30415504 79.71403313 -1.37449074 C96.35208103 -1.89040781 96.35208103 -1.89040781 100.78636551 1.27532578 C104.10338205 4.71631524 106.03480983 8.65831823 108 13 C108.86239541 14.31934691 109.74822306 15.62486003 110.6875 16.890625 C111.45870608 18.01015998 112.22953461 19.12995514 113 20.25 C113.6657605 21.21764282 113.6657605 21.21764282 114.3449707 22.20483398 C117.92316114 27.41400239 121.47413354 32.64138616 125.0222168 37.87109375 C132.00158236 48.15796562 139.04443683 58.39515975 146.16821289 68.58251953 C151.32746754 75.98188388 156.35603401 83.46226549 161.30932617 91.00097656 C164.70057012 96.14175775 168.2430612 101.11968762 172 106 C175.42694294 102.68708843 178.43752119 99.29926152 181.3125 95.5 C181.72419434 94.95811035 182.13588867 94.4162207 182.56005859 93.85791016 C183.50025793 92.62020078 184.43896099 91.38135389 185.37646484 90.14160156 C187.21895324 87.71117927 189.07186423 85.28890279 190.92578125 82.8671875 C197.09056619 74.80826752 203.24067005 66.75014887 209.1640625 58.51171875 C211.71588275 55.02061147 214.36270872 51.60484376 217.00927734 48.18554688 C220.38194757 43.82166716 223.69836938 39.41780837 227 35 C231.48508314 29.00058463 236.02520632 23.04805692 240.60546875 17.12109375 C243.84332463 12.90078894 247.01866299 8.63555257 250.1875 4.36328125 C252 2 252 2 254 0 C255.97962379 -0.24609566 255.97962379 -0.24609566 258.45449829 -0.24050903 C259.39121872 -0.24325836 260.32793915 -0.24600769 261.29304504 -0.24884033 C262.32378647 -0.24164978 263.35452789 -0.23445923 264.41650391 -0.22705078 C265.49944229 -0.22734283 266.58238068 -0.22763489 267.69813538 -0.22793579 C271.29102488 -0.22653828 274.88370906 -0.21095718 278.4765625 -0.1953125 C280.96235033 -0.19158387 283.44813962 -0.18873619 285.93392944 -0.18673706 C291.81649086 -0.17987126 297.69897602 -0.16409547 303.58150613 -0.14403808 C310.93453258 -0.11950986 318.28756813 -0.10875255 325.640625 -0.09765625 C338.76045437 -0.07618531 351.8802225 -0.04241768 365 0 C363.33786219 4.44995127 361.03142621 7.82929957 358.0625 11.5 C357.57305908 12.11238525 357.08361816 12.72477051 356.5793457 13.35571289 C355.0620299 15.24476499 353.53352511 17.12409032 352 19 C351.54915039 19.55284668 351.09830078 20.10569336 350.63378906 20.67529297 C340.44307603 33.10493218 329.36188552 44.70485769 318.0625 56.125 C317.36495605 56.8355957 316.66741211 57.54619141 315.94873047 58.27832031 C311.87496135 62.3589197 307.75514916 65.74337179 303 69 C301.31183067 70.64488294 299.64646685 72.31337542 298 74 C277.14977314 93.11270796 253.33215344 109.90270739 229.22509766 124.63574219 C226.76233301 126.14571902 224.30840517 127.66942376 221.85546875 129.1953125 C217.37936499 131.97922574 212.8964057 134.75175031 208.40820312 137.51611328 C206.93446981 138.42419835 205.46159938 139.33368804 203.99023438 140.24560547 C191.95509128 147.69485488 179.48585112 154.34281262 167 161 C166.11634766 161.47147461 165.23269531 161.94294922 164.32226562 162.42871094 C161.88358341 163.72726678 159.44261234 165.02135374 157 166.3125 C156.32098633 166.67206787 155.64197266 167.03163574 154.94238281 167.40209961 C148.74152271 170.65996765 142.47032143 173.7755606 136.20214844 176.90112305 C132.2456781 178.87486248 128.29789985 180.86547474 124.3515625 182.859375 C103.87678623 193.18786153 83.21804401 203.01759629 62.21728516 212.24023438 C58.21051191 214.00114056 54.23363326 215.81729656 50.265625 217.6640625 C41.98493576 221.49566706 33.62863623 225.15290532 25.27124023 228.81347656 C22.57017965 229.99663604 19.86998658 231.18175737 17.16992188 232.3671875 C12.11614628 234.58471015 7.05886138 236.79410822 2 239 C1.3372406 239.28970673 0.6744812 239.57941345 -0.00836182 239.87789917 C-8.44077783 243.55899395 -16.94611719 247.00186723 -25.53173828 250.30493164 C-27.50031465 251.06262111 -29.46704119 251.82496595 -31.43359375 252.58789062 C-38.89346873 255.47314524 -46.38473678 258.23841037 -53.92529297 260.90673828 C-57.63513321 262.22583187 -61.31702386 263.60785107 -65 265 C-131.59647776 289.59281695 -224.6716938 316.89441901 -292.9375 285.625 C-313.51497102 275.70280154 -326.63395296 262.01190052 -334.8125 240.625 C-339.58826499 224.54757999 -338.93589257 206.90943944 -334 191 C-333.566875 189.54207031 -333.566875 189.54207031 -333.125 188.0546875 C-330.72519541 180.39531118 -327.49260519 173.21805073 -324 166 C-323.67 166 -323.34 166 -323 166 C-322.92523438 167.23492187 -322.85046875 168.46984375 -322.7734375 169.7421875 C-321.4839253 187.50389315 -317.31583828 202.32994201 -307 217 C-306.22076172 218.19302734 -306.22076172 218.19302734 -305.42578125 219.41015625 C-289.20165059 242.58164764 -257.36827383 252.7232077 -231 258 C-217.172481 260.21769444 -203.21912485 260.36432532 -189.25 260.3125 C-188.22464142 260.31067719 -187.19928284 260.30885437 -186.14285278 260.30697632 C-158.29000383 260.22404315 -131.40316104 257.00087919 -104 252 C-102.32429932 251.70222656 -102.32429932 251.70222656 -100.61474609 251.3984375 C-57.8938034 243.79120627 -15.05646665 231.77797157 25 215 C25.88880859 214.63036133 26.77761719 214.26072266 27.69335938 213.87988281 C72.68596121 197.73716451 72.68596121 197.73716451 108 169 C107.11679811 167.14488174 107.11679811 167.14488174 105.7109375 165.1328125 C105.18814209 164.3399585 104.66534668 163.54710449 104.12670898 162.73022461 C103.54864502 161.87050049 102.97058105 161.01077637 102.375 160.125 C101.16519745 158.29568344 99.95556672 156.46625323 98.74609375 154.63671875 C98.12202637 153.69876465 97.49795898 152.76081055 96.85498047 151.79443359 C94.0218669 147.5264923 91.22819133 143.23325467 88.4375 138.9375 C87.9019751 138.11499756 87.3664502 137.29249512 86.81469727 136.44506836 C83.09675555 130.72382139 79.44199489 124.96517045 75.8125 119.1875 C71.98869074 113.10161478 68.08672713 107.08344751 64.06958008 101.1237793 C59.94711189 94.97939652 55.97744769 88.73888974 52 82.5 C47.68376881 75.73025334 43.36330164 68.96968987 38.875 62.3125 C34.30156814 55.52506102 29.92186127 48.61975993 25.54272461 41.70581055 C20.45162691 33.6794793 15.27268614 25.71264565 10.06176758 17.76367188 C8.36914041 15.17922541 6.68226866 12.59119899 5 10 C4.23647217 8.82775879 4.23647217 8.82775879 3.45751953 7.63183594 C2.99845215 6.91543945 2.53938477 6.19904297 2.06640625 5.4609375 C1.66494385 4.83751465 1.26348145 4.2140918 0.84985352 3.57177734 C0 2 0 2 0 0 Z " fill="#0165D0" transform="translate(392,210)"/>
<path d="M0 0 C0.71510742 0.29116699 1.43021484 0.58233398 2.16699219 0.88232422 C14.61092177 6.09240255 20.08573025 13.81293617 26.50292969 25.39794922 C28.06421473 28.11161131 29.74142213 30.71082136 31.4765625 33.31640625 C32.0447168 34.17443848 32.61287109 35.0324707 33.19824219 35.91650391 C34.2972891 37.56891485 35.40444988 39.21596414 36.52050781 40.85693359 C37.00616211 41.60410645 37.49181641 42.3512793 37.9921875 43.12109375 C38.42901855 43.7752124 38.86584961 44.42933105 39.31591797 45.10327148 C40 47 40 47 39.2590332 49.09887695 C37.56299663 51.65986916 35.52555262 53.62167375 33.3125 55.75 C29.7476153 59.24389127 26.37802357 62.78354023 23.13671875 66.57421875 C17.90488192 72.51383606 12.41856366 78.23101561 7 84 C3.48843674 82.675639 0.18265408 81.08696719 -3.15991211 79.38574219 C-38.7536536 61.6424442 -81.48248296 56.27730216 -119.75 68.3125 C-122.18209825 69.16554939 -124.59965736 70.06130391 -127 71 C-127.97984863 71.37680908 -127.97984863 71.37680908 -128.97949219 71.76123047 C-143.62904027 77.47616406 -156.20026349 85.57407652 -168 96 C-168.69480469 96.61101562 -169.38960938 97.22203125 -170.10546875 97.8515625 C-183.26867618 110.20028005 -192.97066461 127.74962257 -198 145 C-198.44666016 146.49660156 -198.44666016 146.49660156 -198.90234375 148.0234375 C-206.1773696 177.3246937 -199.67002712 206.37796916 -185 232 C-184.67 232.66 -184.34 233.32 -184 234 C-215.76614079 232.89938102 -247.01064824 226.35157679 -269.87109375 202.46875 C-282.05751566 188.33697267 -287.40964351 172.36097718 -287.3125 153.9375 C-287.30758545 152.83422363 -287.3026709 151.73094727 -287.29760742 150.59423828 C-286.72945681 110.73046023 -264.1758151 74.21547124 -236.77783203 46.71630859 C-229.82076814 40 -229.82076814 40 -227 40 C-227 39.34 -227 38.68 -227 38 C-223.26347353 34.68117466 -219.08794679 31.86859557 -215 29 C-214.29762207 28.505 -213.59524414 28.01 -212.87158203 27.5 C-199.31897995 18.05773424 -185.09697416 10.66491174 -170 4 C-169.2795752 3.67950684 -168.55915039 3.35901367 -167.81689453 3.02880859 C-148.37458357 -5.43021479 -126.24086736 -10.43128738 -105.22998047 -12.73974609 C-103.14397945 -12.98319662 -101.07777444 -13.28347752 -99.00390625 -13.61328125 C-65.69097334 -18.62556491 -30.83532359 -13.27767088 0 0 Z " fill="#0164D0" transform="translate(372,217)"/>
<path d="M0 0 C0 3.79430214 -1.11275647 4.96636661 -3.265625 8.0703125 C-3.99716797 9.14055664 -4.72871094 10.21080078 -5.48242188 11.31347656 C-5.88678467 11.90277954 -6.29114746 12.49208252 -6.70776367 13.09924316 C-9.07202567 16.57684788 -11.3676311 20.09965715 -13.671875 23.6171875 C-14.67567974 25.1459 -15.6795872 26.67454504 -16.68359375 28.203125 C-17.7057582 29.76039761 -18.72789338 31.31768943 -19.75 32.875 C-21.29551222 35.22928355 -22.84114919 37.58348498 -24.38702393 39.93753052 C-25.34000996 41.38877699 -26.29278283 42.84016347 -27.24530029 44.29171753 C-29.81467991 48.20500242 -32.39833617 52.10809859 -35 56 C-38.24519666 55.69593558 -39.61900552 55.43719323 -41.80078125 52.93359375 C-42.29964844 52.10988281 -42.79851563 51.28617187 -43.3125 50.4375 C-43.82425781 49.61121094 -44.33601562 48.78492188 -44.86328125 47.93359375 C-45.42595703 46.97646484 -45.42595703 46.97646484 -46 46 C-44.65444865 42.96395811 -43.20422593 41.00673018 -40.75390625 38.77734375 C-40.09060303 38.16560303 -39.4272998 37.5538623 -38.74389648 36.92358398 C-38.02403564 36.26817627 -37.3041748 35.61276855 -36.5625 34.9375 C-29.04875414 27.99480856 -21.77362795 20.85134513 -14.59790039 13.56030273 C-9.90673946 8.81740665 -5.08928444 4.3139063 0 0 Z " fill="#0052B7" transform="translate(593,402)"/>
<path d="M0 0 C0.66 0.33 1.32 0.66 2 1 C1.43152344 1.556875 0.86304688 2.11375 0.27734375 2.6875 C-4.71221202 7.61874711 -9.44227773 12.67048952 -14 18 C-15.31085828 19.50143492 -16.62332276 21.00146924 -17.9375 22.5 C-18.52402344 23.1703125 -19.11054687 23.840625 -19.71484375 24.53125 C-20.13894531 25.0159375 -20.56304688 25.500625 -21 26 C-21.66 25.67 -22.32 25.34 -23 25 C-23 24.34 -23 23.68 -23 23 C-23.99 22.67 -24.98 22.34 -26 22 C-19.09109131 16.1090183 -12.17000858 10.25954161 -5.0234375 4.65625 C-3.23019229 3.18841994 -1.60102343 1.67240664 0 0 Z " fill="#0D6BD2" transform="translate(717,287)"/>
<path d="M0 0 C0.66 0.33 1.32 0.66 2 1 C-2.66666667 5.66666667 -7.33333333 10.33333333 -12 15 C-12.99 14.34 -13.98 13.68 -15 13 C-14.08476563 12.22914063 -13.16953125 11.45828125 -12.2265625 10.6640625 C-11.02600156 9.6510892 -9.82548292 8.63806576 -8.625 7.625 C-7.72007812 6.86316406 -7.72007812 6.86316406 -6.796875 6.0859375 C-6.21679688 5.59609375 -5.63671875 5.10625 -5.0390625 4.6015625 C-4.50490723 4.15119629 -3.97075195 3.70083008 -3.42041016 3.23681641 C-2.23658322 2.20600388 -1.10995961 1.10995961 0 0 Z " fill="#2379DA" transform="translate(717,287)"/>
<path d="M0 0 C-2.475 1.485 -2.475 1.485 -5 3 C-4.67 3.66 -4.34 4.32 -4 5 C-7.96 5 -11.92 5 -16 5 C-13.52873606 3.35249071 -11.2390557 2.06276295 -8.5625 0.8125 C-7.80066406 0.44769531 -7.03882813 0.08289063 -6.25390625 -0.29296875 C-3.71011262 -1.09093521 -2.47544187 -0.8852947 0 0 Z " fill="#1759B9" transform="translate(378,561)"/>
<path d="M0 0 C0.66 0.33 1.32 0.66 2 1 C-2.48249823 4.51546181 -6.77138032 7.64712114 -12 10 C-12 8.68 -12 7.36 -12 6 C-10.04669132 4.96958487 -8.08718472 3.9509107 -6.125 2.9375 C-5.03445313 2.36902344 -3.94390625 1.80054688 -2.8203125 1.21484375 C-1.42425781 0.61349609 -1.42425781 0.61349609 0 0 Z " fill="#D9E6F5" transform="translate(406,540)"/>
<path d="M0 0 C0.33 0.99 0.66 1.98 1 3 C0.34 3 -0.32 3 -1 3 C-1.226875 3.556875 -1.45375 4.11375 -1.6875 4.6875 C-3.35896766 7.63246684 -5.55276352 9.68156544 -8 12 C-8.66 11.67 -9.32 11.34 -10 11 C-6.7 7.37 -3.4 3.74 0 0 Z " fill="#126DD3" transform="translate(132,267)"/>
</svg>
